G04 DipTrace 2.4.0.2*
%INBottom.gbr*%
%MOMM*%
%ADD13C,0.5*%
%ADD14C,1.0*%
%ADD15C,1.6*%
%ADD16R,1.6X1.6*%
%ADD17C,1.5*%
%ADD18R,1.9X1.9*%
%ADD19C,1.9*%
%ADD20C,1.6*%
%ADD21C,1.524*%
%ADD22C,1.524*%
%ADD23R,1.7X1.7*%
%ADD24C,1.7*%
%ADD26R,0.5X1.8*%
%ADD27R,1.8X0.5*%
%ADD28R,1.5X1.5*%
%ADD29R,1.8X1.8*%
%ADD30C,1.8*%
%ADD32C,2.0*%
%FSLAX53Y53*%
G04*
G71*
G90*
G75*
G01*
%LNBottom*%
%LPD*%
X78998Y85595D2*
D13*
Y67973D1*
X74368Y63343D1*
Y56865D1*
X81518Y68243D2*
X80768Y67493D1*
Y56865D1*
X74068Y72367D2*
Y93725D1*
X76048Y95705D1*
X89158Y88856D2*
Y53465D1*
X88358Y52665D1*
X86568D1*
X81128Y93165D2*
Y91217D1*
X77448Y87537D1*
Y68193D1*
X73568Y64313D1*
Y56865D1*
X72518Y84045D2*
Y97055D1*
X73318Y97855D1*
X78588D1*
X63348Y85545D2*
D14*
Y80025D1*
X68428Y77925D2*
D13*
Y99405D1*
X69228Y100205D1*
X81708D1*
X86208Y95705D1*
X86568Y51865D2*
X77204D1*
X76404Y51065D1*
Y47091D1*
X77204Y51865D2*
Y54265D1*
X76404Y55065D1*
X70968D1*
X68718Y56377D2*
Y69505D1*
X69518Y70305D1*
Y74295D1*
D14*
X65888Y77925D1*
X48108Y55065D2*
D13*
Y48715D1*
X76404Y47091D2*
X75778D1*
X74778Y46091D1*
Y45465D1*
X72418D1*
Y53465D1*
X70968D1*
X72418Y45465D2*
X70968D1*
X60808Y85545D2*
D14*
Y93165D1*
X55728Y98245D1*
X65888Y77925D2*
X61608D1*
X60808Y78725D1*
Y85545D1*
X69518Y70305D2*
D13*
X76048D1*
X70968Y55065D2*
X69718D1*
X68718Y56065D1*
Y56377D1*
X48108Y42365D2*
Y36015D1*
Y48715D2*
Y42365D1*
X65888Y70305D2*
D14*
X60380D1*
X58268Y72417D1*
Y85545D1*
X60380Y70305D2*
Y69877D1*
X55728Y65225D1*
X93828Y88085D2*
D13*
X95978Y85935D1*
X115048D1*
X117198Y88085D1*
X93828Y93165D2*
X88408D1*
X87608Y92365D1*
Y66679D1*
X83168Y62239D1*
Y56865D1*
X35408Y75385D2*
Y72845D1*
X37948Y70305D1*
X40488Y65225D2*
X44831Y60882D1*
X62740D1*
X63540Y60082D1*
Y53465D1*
X64340Y52665D1*
X70968D1*
X37948Y70305D2*
X40488Y67765D1*
Y65225D1*
X29438Y29665D2*
D14*
X32868Y33095D1*
Y34745D1*
X116688Y44905D2*
D13*
Y52525D1*
X111608Y57605D1*
X73968Y52455D2*
Y54265D1*
X70968D1*
Y46265D2*
X65890D1*
Y50315D1*
X32868Y57605D2*
D14*
Y64425D1*
X32068Y65225D1*
X32868Y66025D1*
Y70305D1*
X86568Y51065D2*
D13*
X88018D1*
X88658Y51705D1*
X91508D1*
Y52455D1*
X32868Y75385D2*
D14*
Y80465D1*
X50648Y98245D1*
X32868Y70305D2*
Y75385D1*
X32068Y65225D2*
X29438D1*
X32868Y52525D2*
Y57605D1*
X30328Y47445D2*
X32868Y49985D1*
Y52525D1*
Y39825D2*
Y44905D1*
X30328Y47445D1*
X32868Y34745D2*
Y39825D1*
X111608Y57605D2*
Y72845D1*
X114148Y75385D1*
X70968Y54265D2*
D13*
X65890D1*
X40488Y29665D2*
Y32205D1*
X37948Y34745D1*
X35408Y39825D2*
X40778Y45195D1*
X45196D1*
X45996Y45995D1*
Y56377D1*
X46796Y57177D1*
X59580D1*
X60380Y56377D1*
Y52665D1*
X61180Y51865D1*
X70968D1*
X37948Y34745D2*
X35408Y37285D1*
Y39825D1*
X41378Y47445D2*
X37948Y50875D1*
Y52525D1*
X67516Y48015D2*
Y50265D1*
X68316Y51065D1*
X70968D1*
X37948Y52525D2*
X35408Y55065D1*
Y57605D1*
X53188Y81575D2*
Y98245D1*
X83668Y75385D2*
X79968Y71685D1*
Y56865D1*
X90018Y28668D2*
X83168Y35518D1*
Y41265D1*
X93828Y21496D2*
X82368Y32956D1*
Y41265D1*
X97638Y16475D2*
X82368D1*
X81568Y17275D1*
Y41265D1*
X80768Y45015D2*
Y41265D1*
X79968D2*
Y29692D1*
X79858D1*
X78418Y38265D2*
X79168Y39015D1*
Y41265D1*
X78368Y43465D2*
Y41265D1*
X120678Y14425D2*
Y101875D1*
X119228Y103325D1*
X58268Y36015D2*
X71968D1*
X72768Y36815D1*
Y41265D1*
X58268Y42365D2*
X64311D1*
X65011Y43065D1*
X70968D1*
X58268Y48715D2*
Y45227D1*
X59630Y43865D1*
X70968D1*
X58268Y45227D2*
X57468Y44427D1*
X53188D1*
X50648Y16475D2*
Y49227D1*
X51448Y50027D1*
X58780D1*
X59580Y50827D1*
Y53753D1*
X58268Y55065D1*
X58780Y50027D2*
X60380D1*
X65742Y44665D1*
X70968D1*
X119228Y78815D2*
D14*
Y73645D1*
X118428Y72845D1*
X114148D1*
X106528Y57605D2*
D13*
X108640Y55493D1*
Y44355D1*
X107840Y43555D1*
X96314D1*
X90404Y49465D1*
X86568D1*
X106528Y44905D2*
X101168Y50265D1*
X86568D1*
D32*
X78998Y85595D3*
X81518Y68243D3*
X74068Y72367D3*
X89158Y88856D3*
X78588Y97855D3*
X63348Y80025D3*
X72518Y84045D3*
X68718Y56377D3*
X76404Y47091D3*
X65890Y54265D3*
Y50315D3*
X73968Y52455D3*
X91508D3*
X67516Y48015D3*
X53188Y81575D3*
X90018Y28668D3*
X93828Y21496D3*
X97638Y16475D3*
X80768Y45015D3*
X79858Y29692D3*
X78418Y38265D3*
X78368Y43465D3*
X120678Y14425D3*
X53188Y44427D3*
X50648Y16475D3*
D15*
X53188Y77925D3*
D16*
X50648D3*
X65888D3*
D15*
X68428D3*
D18*
X58268Y85545D3*
D19*
X60808D3*
X63348D3*
D16*
X109068Y90625D3*
D20*
Y88085D3*
X117198Y90625D3*
Y88085D3*
D18*
X124308D3*
D19*
Y90625D3*
Y93165D3*
D21*
X76048Y70305D3*
D22*
X65888D3*
D21*
X55728Y65225D3*
D22*
Y75385D3*
D21*
X93828Y93165D3*
D22*
X103988D3*
D21*
Y88085D3*
D22*
X93828D3*
D23*
X86208Y95705D3*
D24*
Y93165D3*
X83668Y95705D3*
Y93165D3*
X81128Y95705D3*
Y93165D3*
X78588Y95705D3*
Y93165D3*
X76048Y95705D3*
Y93165D3*
D26*
X72768Y56865D3*
X73568D3*
X74368D3*
X75168D3*
X75968D3*
X76768D3*
X77568D3*
X78368D3*
X79168D3*
X79968D3*
X80768D3*
X81568D3*
X82368D3*
X83168D3*
X83968D3*
X84768D3*
D27*
X86568Y55065D3*
Y54265D3*
Y53465D3*
Y52665D3*
Y51865D3*
Y51065D3*
Y50265D3*
Y49465D3*
Y48665D3*
Y47865D3*
Y47065D3*
Y46265D3*
Y45465D3*
Y44665D3*
Y43865D3*
Y43065D3*
D26*
X84768Y41265D3*
X83968D3*
X83168D3*
X82368D3*
X81568D3*
X80768D3*
X79968D3*
X79168D3*
X78368D3*
X77568D3*
X76768D3*
X75968D3*
X75168D3*
X74368D3*
X73568D3*
X72768D3*
D27*
X70968Y43065D3*
Y43865D3*
Y44665D3*
Y45465D3*
Y46265D3*
Y47065D3*
Y47865D3*
Y48665D3*
Y49465D3*
Y50265D3*
Y51065D3*
Y51865D3*
Y52665D3*
Y53465D3*
Y54265D3*
Y55065D3*
D28*
X32868Y75385D3*
D17*
X35408D3*
X37948D3*
D29*
X40488Y65225D3*
D30*
X29438D3*
D15*
X32868Y70305D3*
D16*
X37948D3*
D28*
X32868Y39825D3*
D17*
X35408D3*
X37948D3*
D29*
X40488Y29665D3*
D30*
X29438D3*
D15*
X32868Y34745D3*
D16*
X37948D3*
D28*
X32868Y57605D3*
D17*
X35408D3*
X37948D3*
D29*
X41378Y47445D3*
D30*
X30328D3*
D15*
X32868Y52525D3*
D16*
X37948D3*
D29*
X129388Y85545D3*
D30*
Y96595D3*
D28*
X50648Y98245D3*
D17*
X53188D3*
X55728D3*
D21*
X119228Y103325D3*
D22*
X109068D3*
D21*
X58268Y36015D3*
D22*
X48108D3*
D21*
X58268Y42365D3*
D22*
X48108D3*
D21*
X58268Y48715D3*
D22*
X48108D3*
D21*
X58268Y55065D3*
D22*
X48108D3*
D16*
X98908Y72845D3*
D20*
Y70305D3*
X107038Y72845D3*
Y70305D3*
D18*
X114148D3*
D19*
Y72845D3*
Y75385D3*
D21*
X83668D3*
D22*
X93828D3*
D21*
X83668Y70305D3*
D22*
X93828D3*
D29*
X119228Y67765D3*
D30*
Y78815D3*
D21*
X106528Y57605D3*
D22*
Y44905D3*
D15*
X116688Y57605D3*
D16*
X111608D3*
D15*
Y44905D3*
D16*
X116688D3*
M02*
